<svg id="visual" viewBox="0 0 960 540" width="960" height="540" xmlns="http://www.w3.org/2000/svg" xmlns:xlink="http://www.w3.org/1999/xlink" version="1.1"><rect x="0" y="0" width="960" height="540" fill="#f8fafd"></rect><defs><linearGradient id="grad1_0" x1="43.8%" y1="0%" x2="100%" y2="100%"><stop offset="14.444444444444446%" stop-color="#f8fafd" stop-opacity="1"></stop><stop offset="85.55555555555554%" stop-color="#f8fafd" stop-opacity="1"></stop></linearGradient></defs><defs><linearGradient id="grad2_0" x1="0%" y1="0%" x2="56.3%" y2="100%"><stop offset="14.444444444444446%" stop-color="#f8fafd" stop-opacity="1"></stop><stop offset="85.55555555555554%" stop-color="#f8fafd" stop-opacity="1"></stop></linearGradient></defs><g transform="translate(960, 0)"><path d="M0 324C-44.8 322.6 -89.6 321.2 -124 299.3C-158.3 277.5 -182.2 235.2 -199.4 199.4C-216.6 163.6 -227 134.3 -246.7 102.2C-266.3 70 -295.2 35 -324 0L0 0Z" fill="#2f57db"></path></g><g transform="translate(0, 540)"><path d="M0 -324C37.9 -310.3 75.8 -296.5 117.5 -283.6C159.2 -270.7 204.8 -258.7 229.1 -229.1C253.4 -199.5 256.6 -152.5 268.8 -111.4C281.1 -70.3 302.6 -35.1 324 0L0 0Z" fill="#2f57db"></path></g></svg>