<?xml version="1.0" standalone="no"?><svg xmlns="http://www.w3.org/2000/svg" viewBox="0 0 1440 320"><path fill="#0099ff" fill-opacity="1" d="M0,192L30,213.3C60,235,120,277,180,277.3C240,277,300,235,360,192C420,149,480,107,540,122.7C600,139,660,213,720,240C780,267,840,245,900,245.3C960,245,1020,267,1080,261.3C1140,256,1200,224,1260,186.7C1320,149,1380,107,1410,85.3L1440,64L1440,320L1410,320C1380,320,1320,320,1260,320C1200,320,1140,320,1080,320C1020,320,960,320,900,320C840,320,780,320,720,320C660,320,600,320,540,320C480,320,420,320,360,320C300,320,240,320,180,320C120,320,60,320,30,320L0,320Z"></path></svg>