<?xml version="1.0" standalone="no"?><svg xmlns="http://www.w3.org/2000/svg" viewBox="0 0 1440 320"><path fill="#0099ff" fill-opacity="1" d="M0,224L30,202.7C60,181,120,139,180,101.3C240,64,300,32,360,26.7C420,21,480,43,540,42.7C600,43,660,21,720,48C780,75,840,149,900,197.3C960,245,1020,267,1080,245.3C1140,224,1200,160,1260,149.3C1320,139,1380,181,1410,202.7L1440,224L1440,0L1410,0C1380,0,1320,0,1260,0C1200,0,1140,0,1080,0C1020,0,960,0,900,0C840,0,780,0,720,0C660,0,600,0,540,0C480,0,420,0,360,0C300,0,240,0,180,0C120,0,60,0,30,0L0,0Z"></path></svg>